<svg width="694" height="463" viewBox="0 0 694 463" fill="none" xmlns="http://www.w3.org/2000/svg">
<g opacity="0.5" clip-path="url(#clip0_644:12932)">
<path d="M694 0.5H0V462.5H694V0.5Z" fill="white"/>
<path d="M581.428 69.9939L530.527 70.0313L529.651 124.434L478.665 124.766L479.081 80.3687L427.131 80.4637L427.054 110.205L376.045 110.457L376.112 126.106L324.101 126.448L272.128 132.553L251.355 117.268L231.502 126.383L196.516 109.205L166.746 137.63L134.361 63.0513L78.1992 244.479C75.0443 254.106 73.6686 264.227 74.1395 274.347C76.2186 320.63 94.4534 357.185 115.204 373.214C130.234 384.824 155.132 376.508 178.818 359.594L198.797 382.212L237.796 359.98L424.164 347.465C443.503 362.792 468.826 375.267 500.451 376.155C500.451 376.155 575.888 360.369 576.418 338.739C576.442 337.795 576.085 336.836 575.381 335.866L581.428 69.9939Z" fill="#EAEAF2"/>
<path d="M496.011 361.721C488.123 359.231 477.415 356.842 464.682 354.72C470.566 354.122 473.946 353.767 473.995 353.762C474.263 353.734 474.515 353.619 474.713 353.435C474.911 353.251 475.044 353.008 475.092 352.742C475.14 352.476 475.1 352.202 474.979 351.96C474.859 351.719 474.663 351.523 474.421 351.402C474.053 351.218 465.141 346.865 441.754 342.474C420.274 338.442 381.959 333.635 321.405 333.635C309.724 333.635 297.459 333.813 284.952 334.165C237.155 335.511 196.636 339.816 164.52 346.959C139.975 352.419 126.705 358.207 120.979 361.172C115.033 364.251 112.226 367.225 112.399 370.264C112.568 373.253 115.58 375.823 121.606 378.122C135.108 383.272 163.93 387.279 207.27 390.03C224.107 391.099 239.836 391.748 250.064 392.105C255.856 392.307 260.537 392.438 263.444 392.513C265.037 392.554 266.281 392.583 267.125 392.601C267.681 392.614 268.067 392.623 268.345 392.625C275.286 393.164 282.743 393.437 290.512 393.437C294.326 393.437 298.233 393.37 302.124 393.238C331.233 392.246 356.631 387.794 367.102 381.868C376.05 382.683 385.289 383.357 394.571 383.871C408.696 384.655 422.502 385.053 435.61 385.053C457.17 385.053 475.696 383.984 489.178 381.964C503.922 379.754 511.299 376.643 511.731 372.453C512.118 368.694 506.976 365.184 496.011 361.721Z" fill="#5A62B3"/>
<path d="M274.433 190.311L297.387 192.899L293.598 232.045L290.669 229.01L292.081 311.339L149.035 333.298L120.151 343.076L112.506 338.905L107.121 209.587L274.433 190.311Z" fill="#C1C3F6"/>
<path d="M297.528 191.657L274.573 189.069C274.479 189.058 274.385 189.058 274.291 189.069L106.978 208.345C106.665 208.381 106.377 208.535 106.172 208.775C105.967 209.014 105.86 209.323 105.873 209.638L111.258 338.958C111.267 339.174 111.332 339.383 111.446 339.566C111.56 339.749 111.719 339.9 111.908 340.003L119.553 344.174C119.705 344.256 119.872 344.307 120.044 344.322C120.216 344.337 120.389 344.316 120.553 344.261L149.332 334.515L292.272 312.573C292.57 312.527 292.842 312.374 293.037 312.143C293.232 311.912 293.337 311.618 293.331 311.316L291.973 232.159L292.699 232.912C292.865 233.084 293.077 233.204 293.309 233.26C293.541 233.315 293.784 233.303 294.01 233.224C294.235 233.145 294.433 233.004 294.581 232.816C294.728 232.628 294.819 232.402 294.842 232.164L298.631 193.018C298.663 192.692 298.564 192.367 298.358 192.112C298.152 191.857 297.853 191.694 297.528 191.657ZM292.616 229.228L291.568 228.142C291.394 227.961 291.17 227.838 290.924 227.786C290.679 227.735 290.423 227.759 290.192 227.855C289.96 227.951 289.763 228.114 289.625 228.324C289.487 228.533 289.416 228.78 289.42 229.03L290.814 310.268L148.846 332.062C148.774 332.073 148.704 332.09 148.635 332.114L120.269 341.716L113.725 338.146L108.418 210.695L274.435 191.569L296.026 194.003L292.616 229.228Z" fill="#5A62B3"/>
<path d="M590.78 157.294L329.36 132.712C329.288 132.705 329.215 132.705 329.144 132.712L296.956 135.274C296.739 135.291 296.531 135.365 296.351 135.488C296.171 135.611 296.026 135.778 295.931 135.974C295.836 136.17 295.794 136.388 295.809 136.605C295.824 136.822 295.895 137.032 296.016 137.213L307.99 155.165L309.759 310.91C309.763 311.218 309.879 311.513 310.087 311.74C310.294 311.967 310.578 312.109 310.884 312.14L518.59 332.969L574.686 344.048C574.92 344.095 575.163 344.073 575.385 343.986L586.466 339.639C586.695 339.549 586.892 339.394 587.033 339.192C587.174 338.991 587.252 338.753 587.258 338.508L591.912 158.573C591.921 158.256 591.809 157.947 591.599 157.71C591.389 157.472 591.096 157.323 590.78 157.294Z" fill="#5A62B3"/>
<path d="M135.869 372.712L136.054 367.701L144.178 367.088C156.311 362.61 180.422 358.38 208.268 356.292C235.982 354.214 260.137 354.803 272.576 357.395L281.834 356.695L281.53 362.046C281.947 368.21 250.044 375.68 210.026 378.759C169.73 381.858 136.41 379.344 135.854 373.112C135.844 372.978 135.849 372.844 135.869 372.712Z" fill="#63BBDF"/>
<path d="M177.329 381.335C165.19 381.335 154.865 380.696 147.47 379.491C138.954 378.102 134.868 376.109 134.61 373.222C134.593 373.019 134.598 372.814 134.623 372.612L134.806 367.656C134.817 367.349 134.941 367.057 135.154 366.836C135.367 366.614 135.654 366.479 135.96 366.456L143.911 365.856C156.624 361.207 181.215 357.069 208.175 355.047C219.326 354.211 230.045 353.787 240.036 353.787C253.891 353.787 265.164 354.599 272.657 356.136L281.739 355.451C281.917 355.437 282.095 355.462 282.262 355.523C282.429 355.584 282.581 355.68 282.708 355.805C282.835 355.93 282.934 356.08 282.999 356.246C283.063 356.412 283.091 356.59 283.081 356.767L282.781 362.05C282.865 364.128 280.866 366.063 276.677 367.965C273.061 369.607 267.862 371.226 261.225 372.778C247.676 375.946 229.528 378.513 210.121 380.006C198.648 380.886 187.615 381.335 177.329 381.335ZM137.262 368.863L137.118 372.758C137.116 372.798 137.113 372.838 137.108 372.878C137.101 372.918 137.098 372.958 137.099 372.998C137.175 373.855 139.53 375.663 147.872 377.024C155.137 378.209 165.323 378.836 177.328 378.836C187.55 378.836 198.519 378.391 209.93 377.513C229.214 376.029 247.229 373.483 260.657 370.343C280.299 365.75 280.294 362.276 280.285 362.13C280.281 362.078 280.281 362.027 280.285 361.975L280.507 358.048L272.671 358.64C272.555 358.649 272.437 358.642 272.322 358.617C265.1 357.113 253.633 356.285 240.036 356.285C230.108 356.285 219.451 356.707 208.362 357.538C181.5 359.553 157.073 363.662 144.612 368.26C144.503 368.301 144.389 368.326 144.274 368.334L137.262 368.863Z" fill="#5A62B3"/>
<path d="M371.894 362.91L371.575 356.925L383.39 357.386C396.076 354.837 417.94 353.727 442.516 354.779C465.976 355.783 486.435 358.523 498.56 361.883L510.048 362.332L510.253 368.259C510.271 368.386 510.276 368.516 510.266 368.644C509.749 374.666 478.792 378.317 440.808 376.794C402.47 375.256 371.471 369.038 371.894 362.91Z" fill="#63BBDF"/>
<path d="M511.499 368.162L511.296 362.288C511.285 361.973 511.156 361.674 510.933 361.45C510.711 361.227 510.412 361.095 510.097 361.083L507.894 360.997C507.777 360.992 507.66 361.004 507.546 361.033L474.559 369.184C474.28 369.253 474.033 369.417 473.86 369.647C473.687 369.877 473.599 370.159 473.61 370.447L473.86 376.771C473.873 377.094 474.01 377.399 474.243 377.623C474.476 377.846 474.787 377.971 475.11 377.971H475.145L496.689 377.368C496.758 377.366 496.827 377.358 496.895 377.344C503.572 376.028 511.217 372.175 511.511 368.755C511.527 368.557 511.523 368.358 511.499 368.162Z" fill="#5A62B3"/>
<path d="M371.551 356.487C371.128 362.625 402.156 368.876 440.528 370.444C478.547 371.999 509.529 368.364 510.048 362.332C510.566 356.292 480.349 350.054 442.237 348.393C403.769 346.718 371.975 350.339 371.551 356.487Z" fill="#C1C3F6"/>
<path d="M457.812 372.054C452.21 372.054 446.398 371.935 440.477 371.693C424.148 371.027 408.301 369.455 395.852 367.27C395.525 367.213 395.235 367.028 395.045 366.757C394.854 366.485 394.78 366.149 394.837 365.823C394.894 365.497 395.079 365.206 395.35 365.016C395.622 364.826 395.957 364.751 396.284 364.808C408.626 366.974 424.357 368.533 440.579 369.196C458.889 369.944 476.159 369.516 489.206 367.992C504.437 366.211 508.691 363.529 508.803 362.225C508.775 361.901 508.629 361.599 508.394 361.375C504.476 356.914 479.939 351.286 442.183 349.642C423.627 348.834 406.079 349.226 392.769 350.748C377.198 352.528 372.889 355.246 372.798 356.572C372.775 356.903 372.621 357.211 372.372 357.429C372.122 357.646 371.796 357.756 371.465 357.733C371.135 357.71 370.827 357.557 370.609 357.307C370.391 357.057 370.282 356.731 370.305 356.4C370.449 354.31 372.633 352.61 376.981 351.204C380.682 350.007 385.899 349.018 392.486 348.265C405.921 346.729 423.61 346.332 442.292 347.145C477.144 348.663 505.099 353.837 510.272 359.726C511.03 360.589 511.374 361.503 511.293 362.439C511.117 364.49 508.961 366.162 504.701 367.551C501.066 368.736 495.951 369.719 489.496 370.474C480.553 371.519 469.655 372.054 457.812 372.054Z" fill="#5A62B3"/>
<path d="M281.833 356.696C282.25 362.87 250.323 370.333 210.278 373.396C169.954 376.48 136.609 373.943 136.053 367.701C135.498 361.448 168.055 353.91 208.52 350.895C248.705 347.899 281.417 350.509 281.833 356.696Z" fill="#EAEAF2"/>
<path d="M284.566 367.006L282.709 358.313C282.986 357.791 283.114 357.202 283.08 356.612C283.018 355.688 282.547 354.839 281.682 354.088C277.84 350.756 265.735 349.392 256.256 348.836C242.928 348.055 225.942 348.343 208.427 349.648C190.76 350.965 173.739 353.224 160.498 356.01C151.066 357.995 139.126 361.182 135.807 365.092C135.062 365.97 134.727 366.885 134.809 367.812C134.98 369.733 136.864 371.255 140.571 372.465C143.683 373.481 148.097 374.296 153.691 374.886C153.854 374.904 154.019 374.889 154.177 374.842C154.334 374.795 154.481 374.718 154.608 374.615C154.736 374.512 154.842 374.385 154.92 374.24C154.999 374.096 155.048 373.938 155.065 373.775C155.082 373.612 155.067 373.447 155.021 373.289C154.974 373.132 154.897 372.985 154.794 372.858C154.691 372.73 154.563 372.624 154.419 372.546C154.275 372.467 154.117 372.418 153.954 372.401C137.758 370.692 137.309 367.716 137.298 367.59C137.27 367.297 137.508 366.949 137.712 366.71C141.849 361.837 169.498 355.055 208.613 352.14C248.695 349.153 275.331 351.886 280.044 355.975C280.281 356.181 280.567 356.487 280.587 356.781C280.561 357.065 280.44 357.331 280.243 357.537C279.976 357.833 279.212 358.578 277.612 359.524C275.004 360.956 270.114 362.856 260.945 364.997C247.508 368.135 229.48 370.675 210.182 372.151C203.39 372.671 196.642 373.04 190.124 373.252C189.793 373.257 189.477 373.393 189.247 373.631C189.016 373.869 188.89 374.189 188.895 374.521C188.9 374.852 189.037 375.168 189.275 375.399C189.513 375.629 189.832 375.756 190.164 375.751H190.205C196.759 375.538 203.545 375.167 210.373 374.644C229.794 373.159 247.956 370.598 261.512 367.432C262.425 367.218 263.31 367.004 264.166 366.788L263.998 369.867C263.988 370.052 264.019 370.237 264.089 370.409C264.159 370.58 264.267 370.734 264.404 370.859C264.54 370.984 264.703 371.077 264.88 371.131C265.057 371.185 265.244 371.199 265.428 371.172L283.524 368.507C283.693 368.482 283.856 368.422 284.001 368.332C284.146 368.242 284.271 368.124 284.369 367.983C284.466 367.843 284.534 367.684 284.567 367.517C284.601 367.349 284.6 367.177 284.564 367.009L284.566 367.006Z" fill="#5A62B3"/>
<path d="M229.372 288.266L231.03 353.124L195.773 358.885L187.411 365.573L179.933 361.474L177.79 295.669L229.372 288.266Z" fill="#C1C3F6"/>
<path d="M473.507 294.93L422.926 289.911C422.752 289.894 422.578 289.913 422.412 289.968C422.247 290.022 422.095 290.11 421.965 290.227C421.836 290.344 421.733 290.486 421.662 290.645C421.591 290.804 421.554 290.976 421.553 291.15L421.324 352.771C421.323 353.082 421.437 353.381 421.645 353.612C421.852 353.843 422.138 353.988 422.447 354.019L452.799 357.095L460.705 363.249C460.875 363.382 461.078 363.468 461.292 363.499C461.506 363.53 461.725 363.505 461.926 363.427L473.188 359.024C473.42 358.933 473.62 358.775 473.761 358.57C473.903 358.365 473.98 358.123 473.983 357.873L474.633 296.186C474.636 295.874 474.522 295.572 474.314 295.339C474.106 295.107 473.818 294.961 473.507 294.93Z" fill="#5A62B3"/>
<path d="M411.208 357.203L461.471 362.263L462.027 300.573L411.343 295.58L411.208 357.203Z" fill="#C1C3F6"/>
<path d="M461.471 363.513C461.43 363.513 461.388 363.51 461.346 363.506L411.083 358.446C410.92 358.43 410.762 358.381 410.617 358.304C410.473 358.226 410.345 358.121 410.241 357.994C410.137 357.867 410.059 357.72 410.012 357.563C409.965 357.406 409.949 357.241 409.965 357.078C409.982 356.915 410.03 356.756 410.108 356.612C410.185 356.467 410.291 356.339 410.418 356.235C410.545 356.131 410.691 356.054 410.848 356.006C411.005 355.959 411.17 355.943 411.333 355.96L460.234 360.883L460.767 301.705L411.22 296.823C411.057 296.807 410.898 296.759 410.754 296.682C410.609 296.604 410.481 296.499 410.377 296.372C410.273 296.245 410.195 296.099 410.147 295.942C410.1 295.785 410.083 295.62 410.099 295.457C410.116 295.294 410.164 295.135 410.241 294.991C410.318 294.846 410.423 294.718 410.55 294.614C410.677 294.51 410.823 294.431 410.98 294.384C411.137 294.336 411.302 294.32 411.465 294.336L462.15 299.33C462.46 299.36 462.748 299.506 462.957 299.738C463.165 299.971 463.279 300.273 463.276 300.585L462.721 362.275C462.718 362.604 462.585 362.919 462.351 363.151C462.117 363.383 461.801 363.513 461.472 363.513H461.471Z" fill="#5A62B3"/>
<path d="M238.065 292.45C238.061 292.274 238.019 292.1 237.943 291.941C237.866 291.782 237.757 291.64 237.622 291.527C237.488 291.413 237.33 291.328 237.16 291.28C236.991 291.231 236.813 291.219 236.638 291.244L230.719 292.096L230.62 288.234C230.616 288.057 230.574 287.884 230.497 287.725C230.421 287.566 230.312 287.425 230.177 287.311C230.043 287.197 229.885 287.113 229.716 287.065C229.546 287.016 229.368 287.004 229.194 287.029L177.611 294.432C177.447 294.453 177.288 294.507 177.145 294.59C177.002 294.673 176.877 294.783 176.777 294.915C176.677 295.047 176.604 295.197 176.562 295.357C176.521 295.518 176.512 295.685 176.535 295.848C176.559 296.012 176.614 296.17 176.699 296.312C176.784 296.454 176.896 296.578 177.029 296.676C177.163 296.774 177.314 296.845 177.474 296.884C177.635 296.924 177.802 296.931 177.966 296.905L228.157 289.702L228.227 292.455L185.158 298.656C184.854 298.7 184.576 298.854 184.379 299.09C184.181 299.325 184.078 299.626 184.088 299.933L186.092 363.427L180.532 360.38C180.388 360.298 180.229 360.247 180.065 360.227C179.901 360.208 179.734 360.222 179.575 360.267C179.417 360.312 179.268 360.389 179.139 360.492C179.01 360.595 178.903 360.723 178.823 360.868C178.744 361.013 178.694 361.172 178.676 361.336C178.659 361.501 178.674 361.667 178.722 361.825C178.769 361.984 178.847 362.131 178.952 362.259C179.056 362.387 179.185 362.493 179.331 362.571L186.81 366.67C186.863 366.699 186.919 366.724 186.976 366.745C186.992 366.75 187.008 366.755 187.023 366.76C187.07 366.775 187.118 366.787 187.166 366.797C187.185 366.801 187.203 366.804 187.22 366.807C187.283 366.818 187.347 366.823 187.41 366.824C187.478 366.824 187.546 366.818 187.613 366.807L238.609 358.449C238.907 358.4 239.177 358.246 239.369 358.013C239.561 357.781 239.663 357.487 239.656 357.186L238.065 292.45Z" fill="#5A62B3"/>
<path d="M299.369 315.373L574.928 342.82L579.315 162.876L297.055 136.519L299.369 315.373Z" fill="white"/>
<path d="M574.928 344.07C574.887 344.07 574.845 344.068 574.805 344.064L299.245 316.617C298.94 316.586 298.656 316.444 298.448 316.218C298.241 315.992 298.124 315.697 298.12 315.39L295.806 136.535C295.804 136.36 295.838 136.186 295.907 136.025C295.977 135.864 296.079 135.72 296.208 135.601C296.337 135.482 296.489 135.391 296.655 135.335C296.821 135.279 296.997 135.259 297.171 135.275L579.431 161.632C579.747 161.661 580.039 161.809 580.249 162.046C580.46 162.283 580.572 162.59 580.564 162.907L576.178 342.851C576.17 343.177 576.035 343.487 575.801 343.715C575.568 343.943 575.255 344.07 574.929 344.07H574.928ZM300.604 314.241L573.712 341.443L578.038 164.012L298.322 137.892L300.604 314.241Z" fill="#5A62B3"/>
<path d="M310.965 307.548L563.22 332.595L566.803 175.157L309.187 150.981L310.965 307.548Z" fill="#B3E3EF"/>
<path d="M120.152 343.076L299.371 315.482L297.388 192.899L114.908 214.008L120.152 343.076Z" fill="white"/>
<path d="M130.666 331.646L289.373 307.672L287.624 207.835L126.577 227.156L130.666 331.646Z" fill="#B3E3EF"/>
<path d="M442.154 247.872L552.812 258.58L554.347 185.96L442.611 175.428L442.154 247.872Z" fill="white"/>
<path d="M442.166 237.294L458.608 230.864L479.714 211.593L497.822 220.738L510.919 211.618L524.608 232.02L534.541 225.589L554.257 190.598L552.812 258.579L442.154 247.871L442.166 237.294Z" fill="#C1C3F6"/>
<path d="M552.812 259.829C552.773 259.829 552.732 259.827 552.692 259.823L442.034 249.115C441.704 249.083 441.4 248.921 441.19 248.666C440.979 248.41 440.879 248.081 440.911 247.751C440.943 247.421 441.104 247.117 441.36 246.907C441.616 246.696 441.945 246.595 442.275 246.627L551.592 257.207L553.074 187.095L513.05 183.322C512.886 183.308 512.726 183.262 512.58 183.185C512.433 183.109 512.304 183.005 512.198 182.878C512.092 182.751 512.012 182.605 511.964 182.448C511.915 182.29 511.897 182.124 511.913 181.96C511.928 181.796 511.976 181.636 512.054 181.49C512.131 181.345 512.237 181.216 512.364 181.111C512.492 181.007 512.639 180.928 512.797 180.881C512.955 180.833 513.121 180.817 513.285 180.834L554.464 184.716C554.779 184.746 555.07 184.893 555.28 185.129C555.49 185.364 555.603 185.671 555.596 185.986L554.062 258.606C554.054 258.933 553.919 259.244 553.686 259.472C553.452 259.7 553.139 259.828 552.812 259.828L552.812 259.829Z" fill="#5A62B3"/>
<path d="M338.203 263.995C338.378 286.828 355.335 306.967 376.142 309.111C397.017 311.261 414.038 294.512 414.097 271.564C414.156 248.475 397.038 227.998 375.929 225.962C354.889 223.933 338.028 241.021 338.203 263.995Z" fill="#63BBDF"/>
<path d="M449.556 278.111L460.227 279.148L460.328 267.672L449.64 266.637L449.556 278.111Z" fill="#FF9AB2"/>
<path d="M460.227 280.398C460.186 280.398 460.146 280.396 460.106 280.392L449.435 279.355C449.124 279.324 448.836 279.179 448.627 278.947C448.418 278.715 448.304 278.414 448.306 278.102L448.389 266.627C448.391 266.454 448.428 266.282 448.499 266.124C448.57 265.966 448.674 265.824 448.802 265.708C448.931 265.592 449.083 265.504 449.248 265.45C449.412 265.395 449.587 265.376 449.759 265.393L460.448 266.428C460.759 266.458 461.047 266.603 461.256 266.836C461.465 267.068 461.58 267.37 461.577 267.683L461.476 279.159C461.473 279.489 461.34 279.804 461.106 280.036C460.872 280.268 460.556 280.398 460.227 280.398H460.227ZM450.813 276.978L458.99 277.773L459.068 268.804L450.878 268.011L450.813 276.978Z" fill="#5A62B3"/>
<path d="M449.458 311.777L460.08 312.822L460.18 301.45L449.541 300.407L449.458 311.777Z" fill="#C1C3F6"/>
<path d="M460.08 314.072C460.04 314.072 459.999 314.07 459.958 314.066L449.335 313.021C449.025 312.99 448.737 312.845 448.529 312.613C448.32 312.381 448.206 312.08 448.209 311.768L448.292 300.398C448.293 300.224 448.331 300.053 448.402 299.895C448.473 299.736 448.576 299.595 448.705 299.479C448.834 299.362 448.986 299.274 449.151 299.22C449.316 299.166 449.49 299.147 449.663 299.164L460.301 300.206C460.612 300.236 460.9 300.382 461.108 300.614C461.317 300.846 461.431 301.148 461.429 301.461L461.329 312.833C461.326 313.163 461.193 313.478 460.959 313.71C460.725 313.941 460.409 314.072 460.079 314.072H460.08ZM450.715 310.645L458.843 311.445L458.921 302.582L450.781 301.784L450.715 310.645Z" fill="#5A62B3"/>
<path d="M449.459 295.079L460.106 296.12L460.207 284.696L449.543 283.658L449.459 295.079Z" fill="#FFDCF4"/>
<path d="M460.107 297.371C460.066 297.371 460.026 297.369 459.985 297.364L449.338 296.323C449.028 296.293 448.74 296.148 448.531 295.916C448.323 295.684 448.208 295.383 448.21 295.071L448.294 283.649C448.295 283.476 448.332 283.304 448.404 283.146C448.475 282.988 448.578 282.846 448.707 282.73C448.836 282.613 448.987 282.524 449.152 282.47C449.317 282.416 449.492 282.397 449.664 282.415L460.328 283.453C460.639 283.483 460.927 283.629 461.136 283.861C461.344 284.093 461.459 284.395 461.456 284.708L461.356 296.132C461.353 296.461 461.22 296.776 460.986 297.008C460.752 297.24 460.436 297.371 460.106 297.371H460.107ZM450.717 293.947L458.869 294.745L458.948 285.829L450.783 285.034L450.717 293.947Z" fill="#5A62B3"/>
<path d="M454.979 275.82L547.184 284.773L547.3 279.117L455.024 270.175L454.979 275.82Z" fill="white"/>
<path d="M454.842 292.7L546.837 301.688L546.953 296.058L454.887 287.082L454.842 292.7Z" fill="white"/>
<path d="M454.708 309.504L546.494 318.525L546.608 312.92L454.753 303.911L454.708 309.504Z" fill="white"/>
<path d="M288.058 226.394C287.732 226.394 287.419 226.267 287.186 226.039C286.952 225.811 286.817 225.502 286.809 225.176L286.407 209.24L258.226 212.621C258.062 212.643 257.895 212.632 257.736 212.589C257.576 212.546 257.426 212.472 257.295 212.371C257.164 212.269 257.055 212.143 256.973 211.999C256.891 211.855 256.839 211.696 256.819 211.532C256.8 211.367 256.813 211.2 256.858 211.041C256.903 210.882 256.98 210.733 257.083 210.604C257.186 210.474 257.314 210.367 257.459 210.287C257.605 210.207 257.764 210.157 257.929 210.14L287.474 206.595C287.647 206.575 287.822 206.59 287.988 206.641C288.155 206.692 288.309 206.777 288.44 206.891C288.572 207.005 288.678 207.145 288.753 207.302C288.827 207.459 288.868 207.631 288.872 207.805L289.309 225.114C289.317 225.445 289.194 225.766 288.965 226.006C288.737 226.246 288.423 226.386 288.092 226.394L288.058 226.394Z" fill="#5A62B3"/>
<path d="M547.185 286.022C547.144 286.022 547.103 286.02 547.063 286.016L454.858 277.063C454.547 277.033 454.259 276.888 454.05 276.656C453.841 276.424 453.727 276.122 453.729 275.81L453.774 270.165C453.776 270.001 453.809 269.839 453.873 269.688C453.937 269.537 454.03 269.4 454.147 269.285C454.264 269.17 454.403 269.079 454.555 269.017C454.707 268.956 454.87 268.925 455.034 268.926C455.198 268.927 455.36 268.961 455.511 269.025C455.662 269.089 455.799 269.182 455.914 269.299C456.029 269.416 456.12 269.554 456.182 269.706C456.243 269.859 456.274 270.021 456.273 270.185L456.237 274.686L547.304 283.529C547.623 283.561 547.917 283.714 548.126 283.956C548.336 284.199 548.444 284.512 548.428 284.832C548.413 285.152 548.276 285.454 548.044 285.676C547.813 285.897 547.505 286.021 547.185 286.022Z" fill="#5A62B3"/>
<path d="M546.839 302.937C546.798 302.937 546.757 302.935 546.716 302.931L454.721 293.944C454.41 293.913 454.122 293.768 453.913 293.536C453.705 293.304 453.59 293.002 453.593 292.69L453.638 287.072C453.64 286.74 453.775 286.423 454.011 286.191C454.247 285.959 454.566 285.829 454.897 285.832C455.228 285.835 455.545 285.969 455.778 286.205C456.01 286.441 456.139 286.76 456.136 287.092L456.101 291.567L546.959 300.444C547.277 300.476 547.572 300.629 547.781 300.871C547.99 301.114 548.099 301.428 548.083 301.748C548.068 302.068 547.93 302.369 547.699 302.591C547.467 302.812 547.159 302.936 546.839 302.937Z" fill="#5A62B3"/>
<path d="M546.496 319.774C546.455 319.774 546.412 319.772 546.372 319.768L454.586 310.747C454.275 310.717 453.988 310.571 453.779 310.339C453.57 310.107 453.456 309.806 453.459 309.494L453.504 303.901C453.506 303.569 453.64 303.253 453.876 303.02C454.113 302.788 454.431 302.659 454.763 302.661C455.094 302.664 455.411 302.798 455.643 303.034C455.876 303.27 456.005 303.589 456.002 303.921L455.966 308.372L546.616 317.281C546.935 317.313 547.23 317.466 547.439 317.709C547.648 317.951 547.756 318.265 547.741 318.585C547.725 318.905 547.587 319.207 547.356 319.429C547.124 319.65 546.816 319.774 546.496 319.774Z" fill="#5A62B3"/>
<path d="M323.399 178.47L415.297 187.178L415.337 172.126L323.256 163.449L323.399 178.47Z" fill="#63BBDF"/>
<path d="M323.562 195.562L415.251 204.304L415.271 196.82L323.49 188.093L323.562 195.562Z" fill="#63BBDF"/>
<path d="M323.764 211.297L404.304 219.019L404.313 211.555L323.693 203.846L323.764 211.297Z" fill="#63BBDF"/>
<path d="M153.574 321.549L142.486 323.201L139.893 254.05L151.094 252.611L153.574 321.549Z" fill="#FF9AB2"/>
<path d="M170.07 319.09L159.09 320.726L157.726 281.973L168.767 280.455L170.07 319.09Z" fill="#FF9AB2"/>
<path d="M186.404 316.654L175.533 318.275L173.842 267.006L184.795 265.542L186.404 316.654Z" fill="#FF9AB2"/>
<path d="M202.58 314.242L191.814 315.848L190.48 272.5L201.314 271.027L202.58 314.242Z" fill="#FF9AB2"/>
<path d="M218.599 311.854L207.938 313.444L207.016 281.166L217.727 279.674L218.599 311.854Z" fill="#FF9AB2"/>
<path d="M234.463 309.489L223.904 311.064L223.326 289.152L233.918 287.644L234.463 309.489Z" fill="#FF9AB2"/>
<path d="M298.637 192.879C298.635 192.715 298.6 192.553 298.535 192.403C298.469 192.252 298.375 192.116 298.257 192.002C298.139 191.888 298 191.798 297.847 191.737C297.695 191.677 297.532 191.647 297.368 191.65C297.204 191.653 297.042 191.688 296.891 191.753C296.741 191.818 296.604 191.912 296.49 192.03C296.376 192.148 296.286 192.288 296.226 192.44C296.166 192.593 296.136 192.756 296.139 192.92L298.105 314.414L121.334 341.63L120.197 317.675C120.182 317.344 120.035 317.032 119.79 316.809C119.545 316.586 119.221 316.47 118.89 316.486C118.559 316.501 118.248 316.648 118.025 316.893C117.802 317.138 117.685 317.462 117.701 317.793L118.904 343.136C118.904 343.159 118.912 343.18 118.914 343.203C118.917 343.226 118.914 343.245 118.917 343.266C118.921 343.288 118.928 343.304 118.932 343.324C118.939 343.361 118.948 343.397 118.959 343.432C118.971 343.472 118.985 343.511 119 343.549C119.014 343.582 119.028 343.614 119.044 343.645C119.063 343.683 119.085 343.718 119.108 343.754C119.126 343.781 119.144 343.809 119.164 343.837C119.19 343.871 119.218 343.903 119.248 343.933C119.27 343.957 119.292 343.981 119.316 344.003C119.349 344.031 119.382 344.058 119.417 344.082C119.443 344.102 119.468 344.122 119.496 344.138C119.534 344.161 119.574 344.182 119.614 344.2C119.642 344.214 119.67 344.228 119.698 344.24C119.746 344.258 119.796 344.273 119.846 344.284C119.87 344.29 119.892 344.299 119.916 344.304C119.993 344.319 120.072 344.327 120.15 344.327C120.173 344.327 120.192 344.327 120.211 344.325C120.23 344.323 120.239 344.32 120.254 344.319C120.284 344.316 120.312 344.317 120.342 344.312L299.561 316.719C299.86 316.673 300.131 316.52 300.326 316.289C300.521 316.059 300.625 315.765 300.62 315.464L298.637 192.879Z" fill="#5A62B3"/>
<path d="M142.485 324.451C142.162 324.451 141.851 324.326 141.618 324.102C141.385 323.877 141.248 323.571 141.236 323.248L138.644 254.097C138.632 253.766 138.752 253.443 138.977 253.2C139.202 252.957 139.515 252.814 139.846 252.801C140.177 252.789 140.5 252.908 140.743 253.134C140.985 253.359 141.129 253.672 141.141 254.003L143.682 321.76L153.39 320.313C153.714 320.271 154.042 320.358 154.303 320.556C154.564 320.753 154.737 321.045 154.785 321.368C154.833 321.692 154.753 322.021 154.561 322.286C154.369 322.551 154.08 322.73 153.758 322.784L142.669 324.437C142.609 324.446 142.547 324.451 142.485 324.451Z" fill="#5A62B3"/>
<path d="M159.09 321.976C158.767 321.976 158.455 321.85 158.222 321.625C157.989 321.4 157.853 321.094 157.841 320.77L156.476 282.017C156.469 281.852 156.494 281.687 156.551 281.532C156.608 281.377 156.694 281.235 156.806 281.113C156.918 280.992 157.053 280.894 157.203 280.825C157.353 280.756 157.515 280.718 157.68 280.712C157.845 280.706 158.01 280.733 158.164 280.791C158.319 280.85 158.46 280.938 158.581 281.051C158.701 281.164 158.797 281.3 158.865 281.451C158.932 281.601 158.969 281.764 158.973 281.929L160.289 319.284L169.885 317.854C170.21 317.811 170.538 317.898 170.799 318.096C171.06 318.293 171.233 318.585 171.282 318.908C171.33 319.232 171.249 319.562 171.057 319.827C170.865 320.092 170.576 320.27 170.254 320.325L159.274 321.961C159.213 321.97 159.152 321.975 159.09 321.976Z" fill="#5A62B3"/>
<path d="M175.532 319.524C175.208 319.524 174.896 319.398 174.663 319.173C174.43 318.947 174.294 318.64 174.283 318.316L172.592 267.047C172.587 266.883 172.613 266.72 172.671 266.566C172.729 266.412 172.816 266.271 172.928 266.151C173.041 266.032 173.175 265.935 173.325 265.867C173.474 265.799 173.636 265.762 173.8 265.756C173.964 265.751 174.127 265.777 174.281 265.835C174.435 265.893 174.575 265.98 174.695 266.093C174.815 266.205 174.912 266.339 174.98 266.489C175.047 266.638 175.085 266.8 175.091 266.964L176.735 316.831L186.22 315.418C186.545 315.375 186.873 315.462 187.134 315.66C187.395 315.857 187.569 316.149 187.617 316.472C187.665 316.796 187.584 317.126 187.392 317.391C187.2 317.656 186.911 317.834 186.589 317.889L175.717 319.509C175.656 319.519 175.594 319.524 175.532 319.524Z" fill="#5A62B3"/>
<path d="M191.815 317.097C191.49 317.097 191.178 316.971 190.945 316.745C190.712 316.519 190.576 316.211 190.566 315.886L189.233 272.538C189.223 272.207 189.345 271.885 189.572 271.643C189.799 271.402 190.113 271.26 190.444 271.25C190.775 271.24 191.097 271.362 191.339 271.589C191.58 271.816 191.721 272.13 191.732 272.461L193.022 314.404L202.399 313.006C202.723 312.964 203.051 313.051 203.312 313.248C203.574 313.445 203.747 313.737 203.795 314.061C203.843 314.385 203.763 314.714 203.57 314.979C203.378 315.244 203.09 315.423 202.767 315.477L192.001 317.083C191.939 317.092 191.877 317.097 191.815 317.097Z" fill="#5A62B3"/>
<path d="M207.937 314.693C207.612 314.694 207.3 314.567 207.066 314.34C206.833 314.114 206.697 313.805 206.688 313.48L205.767 281.203C205.762 281.039 205.79 280.875 205.849 280.722C205.907 280.569 205.995 280.428 206.108 280.309C206.22 280.189 206.355 280.093 206.505 280.026C206.655 279.959 206.817 279.922 206.981 279.918C207.145 279.913 207.308 279.94 207.461 279.999C207.615 280.057 207.755 280.145 207.875 280.258C207.994 280.371 208.09 280.506 208.157 280.656C208.224 280.806 208.261 280.967 208.266 281.131L209.148 312.002L218.417 310.619C218.741 310.577 219.069 310.664 219.33 310.861C219.591 311.058 219.765 311.35 219.813 311.674C219.861 311.998 219.781 312.328 219.588 312.592C219.396 312.857 219.108 313.036 218.785 313.09L208.124 314.681C208.062 314.689 208 314.694 207.937 314.693Z" fill="#5A62B3"/>
<path d="M223.905 312.314C223.579 312.314 223.266 312.187 223.033 311.959C222.8 311.732 222.664 311.423 222.656 311.097L222.077 289.186C222.068 288.854 222.192 288.533 222.42 288.293C222.648 288.052 222.962 287.912 223.293 287.903C223.625 287.895 223.946 288.018 224.186 288.246C224.427 288.474 224.567 288.788 224.576 289.12L225.117 309.62L234.28 308.253C234.605 308.211 234.933 308.298 235.194 308.495C235.455 308.693 235.628 308.985 235.677 309.308C235.725 309.632 235.644 309.962 235.452 310.227C235.26 310.491 234.971 310.67 234.649 310.725L224.09 312.299C224.028 312.309 223.967 312.313 223.905 312.314Z" fill="#5A62B3"/>
<path d="M242.854 291.611C260.246 289.107 273.096 272.29 272.818 252.34L283.567 249.754C284.057 276.731 265.635 301.242 242.12 304.722C242.12 304.721 242.781 291.622 242.854 291.611Z" fill="#63BBDF"/>
<path d="M242.12 305.971C241.951 305.972 241.783 305.937 241.627 305.871C241.471 305.804 241.331 305.706 241.214 305.584C241.097 305.461 241.006 305.316 240.947 305.157C240.888 304.998 240.862 304.828 240.871 304.659C240.871 304.659 241.037 301.383 241.211 298.104C241.298 296.463 241.388 294.823 241.461 293.591C241.497 292.971 241.53 292.453 241.555 292.092C241.601 291.431 241.664 290.526 242.669 290.376C245.332 289.992 247.931 289.254 250.397 288.179C250.548 288.113 250.71 288.077 250.875 288.073C251.039 288.07 251.203 288.099 251.356 288.158C251.509 288.218 251.649 288.308 251.768 288.422C251.886 288.536 251.981 288.673 252.047 288.824C252.113 288.975 252.148 289.137 252.151 289.302C252.153 289.466 252.124 289.63 252.063 289.783C252.002 289.936 251.912 290.075 251.797 290.193C251.683 290.311 251.546 290.406 251.394 290.471C249.032 291.5 246.556 292.245 244.018 292.692C243.893 294.665 243.639 299.456 243.446 303.233C265.029 299.135 282.079 276.397 282.324 251.34L273.11 253.557C272.79 253.628 272.456 253.57 272.178 253.396C271.901 253.223 271.702 252.947 271.626 252.628C271.549 252.31 271.601 251.974 271.77 251.694C271.938 251.413 272.21 251.21 272.527 251.127L283.276 248.542C283.458 248.498 283.647 248.495 283.83 248.535C284.013 248.574 284.184 248.653 284.332 248.768C284.48 248.882 284.601 249.028 284.685 249.196C284.769 249.363 284.814 249.547 284.817 249.734C285.056 263.077 280.843 276.12 272.844 286.803C264.842 297.425 253.996 304.229 242.303 305.959C242.243 305.968 242.181 305.972 242.12 305.971Z" fill="#5A62B3"/>
<path d="M276.281 255.929C275.884 235.206 261 220.229 242.855 222.457C233.632 223.589 225.359 228.981 219.484 236.769L210.927 228.249C218.88 217.914 229.981 210.804 242.318 209.34C266.829 206.429 286.832 226.893 287.326 254.818L276.281 255.929Z" fill="#FF9AB2"/>
<path d="M276.281 257.179C275.954 257.179 275.639 257.05 275.406 256.821C275.172 256.592 275.038 256.28 275.032 255.953C274.831 245.502 270.745 236.061 263.82 230.052C261 227.577 257.685 225.731 254.097 224.636C250.509 223.54 246.728 223.22 243.007 223.697C234.409 224.752 226.409 229.663 220.482 237.522C220.374 237.665 220.238 237.782 220.081 237.868C219.924 237.953 219.751 238.003 219.573 238.016C219.395 238.029 219.216 238.003 219.049 237.941C218.881 237.878 218.729 237.781 218.603 237.655L210.047 229.135C209.832 228.92 209.702 228.635 209.682 228.331C209.662 228.028 209.753 227.728 209.939 227.487C215.895 219.747 223.431 213.949 231.734 210.721C231.887 210.658 232.052 210.627 232.217 210.629C232.383 210.631 232.546 210.665 232.698 210.731C232.851 210.797 232.988 210.892 233.103 211.011C233.218 211.13 233.308 211.271 233.368 211.426C233.428 211.58 233.457 211.745 233.453 211.91C233.449 212.076 233.411 212.239 233.344 212.39C233.276 212.541 233.179 212.677 233.058 212.79C232.937 212.904 232.795 212.992 232.639 213.05C225.073 215.993 218.163 221.201 212.597 228.147L219.368 234.889C225.612 227.142 233.85 222.304 242.704 221.217C246.772 220.695 250.905 221.045 254.829 222.243C258.752 223.44 262.375 225.459 265.459 228.164C272.614 234.374 276.955 243.934 277.484 254.553L286.046 253.692C285.738 245.572 283.7 237.811 280.125 231.182C280.046 231.037 279.995 230.878 279.977 230.714C279.959 230.55 279.974 230.384 280.021 230.225C280.067 230.067 280.145 229.919 280.249 229.791C280.353 229.663 280.481 229.556 280.626 229.478C280.771 229.4 280.931 229.351 281.095 229.334C281.259 229.318 281.425 229.334 281.583 229.383C281.741 229.431 281.888 229.51 282.015 229.615C282.142 229.72 282.248 229.849 282.325 229.995C286.257 237.287 288.418 245.863 288.576 254.797C288.582 255.11 288.469 255.414 288.261 255.649C288.053 255.883 287.764 256.031 287.452 256.062L276.407 257.173C276.364 257.177 276.323 257.179 276.281 257.179Z" fill="#5A62B3"/>
<path d="M284.783 249.462C284.745 249.303 284.675 249.152 284.579 249.019C284.482 248.887 284.361 248.774 284.221 248.689C284.081 248.603 283.925 248.546 283.763 248.52C283.601 248.494 283.436 248.501 283.276 248.539L245.038 257.737L210.14 225.03C210.082 224.977 210.02 224.929 209.954 224.888C209.946 224.883 209.938 224.877 209.929 224.872C209.869 224.836 209.805 224.805 209.74 224.78C209.726 224.774 209.712 224.769 209.698 224.764C209.634 224.741 209.568 224.724 209.501 224.713C209.487 224.71 209.473 224.708 209.459 224.706C209.39 224.696 209.32 224.692 209.25 224.693L209.23 224.695C209.193 224.695 209.155 224.698 209.119 224.703C209.103 224.706 209.088 224.712 209.072 224.715C209.018 224.725 208.964 224.739 208.911 224.756C208.88 224.765 208.85 224.774 208.82 224.786C208.767 224.808 208.715 224.834 208.666 224.864C208.64 224.879 208.613 224.891 208.588 224.908C208.539 224.943 208.493 224.981 208.449 225.023C208.429 225.042 208.405 225.058 208.386 225.078C208.323 225.143 208.268 225.214 208.221 225.291C200.705 237.636 196.875 251.874 197.182 266.325C197.182 266.35 197.19 266.374 197.192 266.398C197.194 266.423 197.192 266.456 197.197 266.484C197.2 266.505 197.207 266.523 197.211 266.543C197.218 266.575 197.226 266.607 197.235 266.638C197.249 266.688 197.267 266.738 197.288 266.786C197.3 266.814 197.311 266.84 197.324 266.866C197.352 266.918 197.383 266.968 197.417 267.015C197.431 267.034 197.442 267.054 197.457 267.072C197.508 267.136 197.565 267.195 197.627 267.248C197.653 267.269 197.68 267.288 197.707 267.306C197.74 267.329 197.771 267.354 197.805 267.373C197.833 267.39 197.864 267.401 197.894 267.416C197.93 267.433 197.965 267.452 198.003 267.466C198.03 267.476 198.058 267.481 198.086 267.489C198.128 267.503 198.17 267.514 198.213 267.523C198.245 267.529 198.279 267.529 198.311 267.532C198.35 267.536 198.389 267.543 198.429 267.543C198.49 267.542 198.55 267.538 198.61 267.528C198.622 267.528 199.191 267.439 199.191 267.439L243.341 260.581L240.873 304.651C240.863 304.815 240.887 304.979 240.941 305.134C240.995 305.289 241.079 305.432 241.189 305.554C241.298 305.676 241.43 305.776 241.578 305.847C241.726 305.918 241.886 305.96 242.05 305.969C242.074 305.97 242.098 305.971 242.121 305.971C242.44 305.971 242.747 305.848 242.979 305.629C243.211 305.41 243.35 305.11 243.368 304.791L245.87 260.107L283.86 250.969C284.019 250.931 284.17 250.861 284.302 250.765C284.435 250.668 284.548 250.547 284.633 250.407C284.719 250.267 284.776 250.111 284.802 249.949C284.828 249.787 284.821 249.622 284.783 249.462ZM214.252 262.571C214.165 253.305 216.071 245.618 220.343 238.018L241.951 258.268L214.252 262.571Z" fill="#5A62B3"/>
<path d="M326.089 227.44C324.595 227.297 323.088 227.225 321.608 227.225C316.216 227.211 310.867 228.188 305.828 230.106C305.783 230.119 305.738 230.135 305.695 230.154L305.598 230.195C304.807 230.502 304.018 230.835 303.252 231.186L295.97 234.263C295.782 234.343 295.617 234.467 295.488 234.625C295.359 234.783 295.271 234.97 295.231 235.17L295.044 236.105C289.045 240.716 284.243 246.701 281.041 253.556C277.537 260.983 275.83 269.18 275.968 277.919C276.244 292.57 281.624 306.665 291.18 317.772C300.773 328.954 313.436 335.844 326.837 337.173C329.441 337.432 332.062 337.472 334.673 337.293L338.591 338.065C338.838 338.114 339.094 338.086 339.326 337.987L349.646 333.544C349.673 333.532 349.701 333.519 349.726 333.506C357.867 329.813 364.726 323.664 369.564 315.723C374.543 307.553 377.16 297.793 377.134 287.5C377.056 257.065 354.156 230.121 326.089 227.44Z" fill="#5A62B3"/>
<path d="M267.994 281.828C268.497 311.291 290.809 337.165 317.878 339.833C344.996 342.506 366.926 320.915 366.813 291.39C366.7 261.629 344.268 235.206 316.756 232.594C289.295 229.988 267.486 252.128 267.994 281.828Z" fill="#FFDCF4"/>
<path d="M280.816 318.234C276.909 313.142 273.809 307.479 271.626 301.443L317.32 286.602L280.816 318.234Z" fill="#C1C3F6"/>
<path d="M322.396 341.308C320.859 341.308 319.299 341.23 317.754 341.078C304.334 339.755 291.645 332.871 282.026 321.694C272.444 310.599 267.039 296.506 266.743 281.849C266.493 267.188 271.521 253.858 280.902 244.314C285.001 240.122 289.9 236.796 295.308 234.533C300.716 232.27 306.523 231.115 312.385 231.137C313.867 231.137 315.377 231.209 316.875 231.351C344.985 234.02 367.948 260.951 368.063 291.387C368.119 305.846 363.014 318.965 353.69 328.325C349.595 332.456 344.719 335.731 339.347 337.96C333.974 340.189 328.213 341.327 322.396 341.308ZM312.383 233.636C306.853 233.615 301.375 234.705 296.273 236.84C291.172 238.975 286.55 242.112 282.683 246.066C273.776 255.128 269.003 267.821 269.242 281.806C269.732 310.515 291.605 335.988 317.999 338.59C319.463 338.734 320.942 338.807 322.392 338.808C327.88 338.826 333.316 337.753 338.385 335.651C343.454 333.548 348.054 330.458 351.918 326.561C360.77 317.676 365.616 305.186 365.563 291.396C365.452 262.209 343.504 236.389 316.637 233.838C315.218 233.705 313.787 233.636 312.383 233.636Z" fill="#5A62B3"/>
<path d="M325.512 224.846C319.877 224.286 314.187 224.691 308.688 226.045L298.603 228.511L314.313 245.426L326.079 285.962L363.271 298.137L370.883 306.334L380.736 303.855C381.541 299.745 381.94 295.565 381.927 291.377C381.867 257.742 356.597 227.83 325.512 224.846Z" fill="#FFDCF4"/>
<path d="M315.152 287.825L298.603 228.511C304.111 227.155 309.81 226.748 315.454 227.308C346.6 230.284 371.956 260.201 372.06 293.851C372.079 298.04 371.685 302.222 370.883 306.334L315.152 287.825Z" fill="#FF9AB2"/>
<path d="M381.947 303.55C381.907 303.39 381.836 303.241 381.738 303.109C381.641 302.977 381.518 302.866 381.377 302.782C381.236 302.698 381.08 302.642 380.918 302.618C380.755 302.594 380.59 302.603 380.431 302.643L370.931 305.033L316.327 286.899C316.272 286.736 316.184 286.587 316.069 286.461L299.806 228.175C299.762 228.017 299.687 227.869 299.586 227.74C299.485 227.611 299.359 227.503 299.216 227.422C299.073 227.342 298.916 227.29 298.753 227.27C298.59 227.251 298.425 227.263 298.267 227.307C298.109 227.351 297.961 227.426 297.832 227.527C297.703 227.629 297.595 227.754 297.515 227.897C297.434 228.04 297.382 228.198 297.363 228.36C297.343 228.523 297.355 228.689 297.399 228.847L313.488 286.508L271.245 299.724C271.088 299.773 270.943 299.852 270.817 299.957C270.691 300.062 270.587 300.191 270.511 300.337C270.435 300.482 270.388 300.641 270.373 300.804C270.358 300.968 270.376 301.132 270.425 301.289C270.474 301.446 270.553 301.591 270.659 301.717C270.764 301.843 270.893 301.947 271.038 302.023C271.183 302.099 271.342 302.146 271.506 302.161C271.669 302.175 271.834 302.158 271.99 302.109L314.425 288.833C314.445 288.848 314.464 288.863 314.485 288.876C314.505 288.89 314.526 288.904 314.548 288.916C314.615 288.954 314.685 288.986 314.758 289.011L370.489 307.52C370.715 307.595 370.957 307.604 371.188 307.546L381.04 305.067C381.2 305.027 381.349 304.956 381.481 304.858C381.613 304.76 381.724 304.637 381.808 304.496C381.892 304.355 381.948 304.199 381.972 304.037C381.996 303.874 381.987 303.709 381.947 303.55Z" fill="#5A62B3"/>
<path d="M560.214 225.622H560.186C560.022 225.618 559.86 225.582 559.71 225.516C559.56 225.45 559.424 225.355 559.311 225.236C559.197 225.118 559.108 224.978 559.049 224.825C558.989 224.672 558.961 224.508 558.964 224.344L559.936 180.195L476.166 172.378C476.001 172.365 475.84 172.32 475.692 172.244C475.545 172.168 475.414 172.064 475.307 171.937C475.2 171.811 475.12 171.664 475.07 171.506C475.021 171.348 475.003 171.181 475.019 171.016C475.034 170.851 475.082 170.691 475.16 170.545C475.238 170.398 475.344 170.269 475.472 170.164C475.601 170.06 475.749 169.981 475.908 169.934C476.066 169.887 476.233 169.872 476.398 169.89L561.327 177.816C561.642 177.845 561.934 177.993 562.144 178.228C562.354 178.464 562.467 178.771 562.46 179.087L561.461 224.4C561.454 224.726 561.319 225.036 561.086 225.265C560.853 225.493 560.54 225.621 560.214 225.622Z" fill="#5A62B3"/>
<path d="M354.003 160.787C353.961 160.787 353.918 160.784 353.875 160.78L309.113 156.243C308.949 156.228 308.79 156.18 308.645 156.103C308.499 156.025 308.37 155.92 308.266 155.793C308.161 155.665 308.083 155.518 308.035 155.361C307.988 155.203 307.972 155.037 307.988 154.874C308.005 154.71 308.054 154.551 308.132 154.406C308.21 154.261 308.316 154.133 308.444 154.029C308.572 153.925 308.72 153.848 308.878 153.801C309.036 153.754 309.201 153.74 309.365 153.757L354.127 158.294C354.447 158.325 354.741 158.479 354.951 158.722C355.16 158.965 355.268 159.279 355.252 159.599C355.236 159.92 355.097 160.222 354.865 160.443C354.632 160.664 354.324 160.787 354.003 160.787Z" fill="#5A62B3"/>
</g>
<defs>
<clipPath id="clip0_644:12932">
<rect width="694" height="462" fill="white" transform="translate(0 0.5)"/>
</clipPath>
</defs>
</svg>
